<svg xmlns="http://www.w3.org/2000/svg" viewBox="0 0 64 64" role="img" aria-label="Logo">
  <defs>
    <linearGradient id="g" x1="0%" y1="0%" x2="100%" y2="100%">
      <stop offset="0%" stop-color="#9b7bff"/>
      <stop offset="100%" stop-color="#7c3aed"/>
    </linearGradient>
  </defs>
  <rect x="4" y="4" width="56" height="56" rx="14" fill="#0f0b1d" stroke="url(#g)" stroke-width="3"/>
  <path d="M22 28c0-6 4-10 10-10s10 4 10 10v2h-6v-2c0-2.2-1.8-4-4-4s-4 1.8-4 4v8c0 2.2 1.8 4 4 4s4-1.8 4-4v-2h6v2c0 6-4 10-10 10s-10-4-10-10v-8z" fill="url(#g)"/>
  <circle cx="32" cy="32" r="2" fill="#fff" opacity="0.7"/>
</svg>
